<svg width="22" height="21" viewBox="0 0 22 21" fill="none" xmlns="http://www.w3.org/2000/svg">
<path d="M18 8.5V6.8H13.6V13.2H15.3V11.2H17.3V9.5H15.3V8.5H18ZM10.7 6.8H12.4V13.2H10.7V6.8ZM7.10002 8.39999C7.50002 8.39999 8.00002 8.59999 8.30002 8.89999L9.50002 7.89999C8.90002 7.19999 8.00002 6.8 7.10002 6.8C5.30002 6.8 3.90002 8.2 3.90002 10C3.90002 11.8 5.30002 13.2 7.10002 13.2C8.10002 13.2 8.90002 12.8 9.50002 12.1V9.6H6.70002V10.8H7.90002V11.4C7.70002 11.5 7.40002 11.6 7.10002 11.6C6.20002 11.6 5.50002 10.9 5.50002 10C5.50002 9.2 6.20002 8.39999 7.10002 8.39999Z" fill="#D9D9D9"/>
<path d="M19.5 0.0199966H2.5C1.26 0.0199966 0.25 1.027 0.25 2.267V17.774C0.25 19.012 1.26 20.02 2.5 20.02H19.5C20.74 20.02 21.75 19.012 21.75 17.774V2.267C21.75 1.027 20.74 0.0199966 19.5 0.0199966ZM20.25 17.774C20.25 18.184 19.914 18.52 19.5 18.52H2.5C2.086 18.52 1.75 18.184 1.75 17.774V2.267C1.75 1.855 2.086 1.52 2.5 1.52H19.5C19.914 1.52 20.25 1.855 20.25 2.267V17.774Z" fill="#D9D9D9"/>
</svg>
